# xmcd
#
# Track frame offsets: 
#        300
#        24615
#        46531
#        69022
#        91985
#        126281
#        142618
#        164743
#        184857
#        199831
#
# Disc length: 3158 seconds
#
# Revision: 5
# Processed by: cddbd v1.5.2PL0 Copyright (c) Steve Scherf et al.
# Submitted via: ExactAudioCopy v1.0b1
#
DISCID=800c520a
DTITLE=Pat Travers - Blues Magnet
DYEAR=1994
DGENRE=Boogie Rock
TTITLE0=Blues Magnet
TTITLE1=Travelin' Blues
TTITLE2=Lil Southern Belle
TTITLE3=Rock Yer Blues Away
TTITLE4=This World We Live In
TTITLE5=She Gets The Lovin'
TTITLE6=Elaine
TTITLE7=Fall To Pieces
TTITLE8=Tore Up (From The Floor Up)
TTITLE9=You Shouldn't Have Hurt Me
EXTD=DISC: 1\nUPC: 02624520222\nLABEL: Blues Bureau International\nENS
EXTD=ORECORD: 78253\n YEAR: 1994 ID3G: 0
EXTT0=PERFORMER: Pat Travers\n
EXTT1=PERFORMER: Pat Travers\n
EXTT2=PERFORMER: Pat Travers\n
EXTT3=PERFORMER: Pat Travers\n
EXTT4=PERFORMER: Pat Travers\n
EXTT5=PERFORMER: Pat Travers\n
EXTT6=PERFORMER: Pat Travers\n
EXTT7=PERFORMER: Pat Travers\n
EXTT8=PERFORMER: Pat Travers\n
EXTT9=PERFORMER: Pat Travers\n
PLAYORDER=
